<?xml version="1.0"?>
<svg xmlns="http://www.w3.org/2000/svg" xmlns:xlink="http://www.w3.org/1999/xlink" xmlns:svgjs="http://svgjs.com/svgjs" version="1.1" width="512" height="512" x="0" y="0" viewBox="0 0 512.137 512.137" style="enable-background:new 0 0 512 512" xml:space="preserve" class=""><g><g xmlns="http://www.w3.org/2000/svg"><path d="m15 15.156h482.137v363.847h-482.137z" fill="#ffffff" data-original="#0e365c" style="" class=""/><path d="m255.746 15.156h241.391v363.847h-241.391z" fill="#e9edff" data-original="#1b0428" style="" class=""/><path d="m192.098 379.02h126.311v117.961h-126.311z" fill="#a9b7ef" data-original="#ccbeb9" style="" class=""/><path d="m9.493 295.92h495.408v83.083h-495.408z" fill="#a9b7ef" data-original="#ccbeb9" style="" class=""/><g><g><path d="m180.988 120.201h-75.412c-8.284 0-15-6.716-15-15s6.716-15 15-15h75.412c8.284 0 15 6.716 15 15s-6.716 15-15 15z" fill="#e1dc8f" data-original="#ff9f00" style="" class=""/></g></g><g><path d="m182.068 232.329h-77.556c-8.284 0-15-6.716-15-15s6.716-15 15-15h77.556c8.284 0 15 6.716 15 15s-6.715 15-15 15z" fill="#b3ddff" data-original="#b3ddff" style="" class=""/></g><g><path d="m379.943 511.981h-247.992c-8.284 0-15-6.716-15-15s6.716-15 15-15h247.992c8.284 0 15 6.716 15 15s-6.715 15-15 15z" fill="#3768fd" data-original="#fff5f5" style="" class=""/></g><g><g><path d="m182.082 255.803c-8.284 0-15-6.716-15-15v-38.376c0-12.838-10.444-23.282-23.282-23.282-29.38 0-53.282-23.902-53.282-53.282v-45.73c0-8.284 6.716-15 15-15s15 6.716 15 15v45.729c0 12.838 10.444 23.282 23.282 23.282 29.38 0 53.282 23.902 53.282 53.282v38.376c0 8.285-6.716 15.001-15 15.001z" fill="#4fe96e" data-original="#00ffe7" style="" class=""/></g></g><g><path d="m104.426 255.803c-8.284 0-15-6.716-15-15v-38.376c0-29.38 23.902-53.282 53.282-53.282 12.838 0 23.282-10.444 23.282-23.282v-45.73c0-8.284 6.716-15 15-15s15 6.716 15 15v45.729c0 29.38-23.902 53.282-53.282 53.282-12.838 0-23.282 10.444-23.282 23.282v38.376c0 8.285-6.716 15.001-15 15.001z" fill="#f5ec5e" data-original="#ff5ca8" style="" class=""/></g><g><path d="m438.25 98.133h-142.269c-8.284 0-15-6.716-15-15s6.716-15 15-15h142.269c8.284 0 15 6.716 15 15s-6.716 15-15 15z" fill="#788feb" data-original="#59a7ff" style="" class=""/></g><g><path d="m438.25 178.468h-142.269c-8.284 0-15-6.716-15-15s6.716-15 15-15h142.269c8.284 0 15 6.716 15 15s-6.716 15-15 15z" fill="#788feb" data-original="#59a7ff" style="" class=""/></g><g><path d="m438.25 258.803h-142.269c-8.284 0-15-6.716-15-15s6.716-15 15-15h142.269c8.284 0 15 6.716 15 15s-6.716 15-15 15z" fill="#788feb" data-original="#59a7ff" style="" class=""/></g><path d="m255.746 295.92h249.155v83.083h-249.155z" fill="#a9b7ef" data-original="#9d9696" style="" class=""/><path d="m255.746 379.02h62.664v117.961h-62.664z" fill="#a9b7ef" data-original="#9d9696" style="" class=""/><path d="m379.943 481.981h-124.197v30h124.198c8.284 0 15-6.716 15-15s-6.716-15-15.001-15z" fill="#3768fd" data-original="#eee1dc" style="" class=""/><path d="m497.137 394.003h-482.137c-8.284 0-15-6.716-15-15v-363.847c0-8.284 6.716-15 15-15h482.137c8.284 0 15 6.716 15 15v363.848c0 8.284-6.716 14.999-15 14.999zm-467.137-30h452.137v-333.847h-452.137z" fill="#3768fd" data-original="#fff5f5" style="" class=""/><path d="m497.137.156h-241.391v30h226.391v333.848h-226.391v30h241.391c8.284 0 15-6.716 15-15v-363.848c0-8.284-6.716-15-15-15z" fill="#3768fd" data-original="#eee1dc" style="" class=""/></g></g></svg>
