<?xml version="1.0"?>
<svg xmlns="http://www.w3.org/2000/svg" xmlns:xlink="http://www.w3.org/1999/xlink" xmlns:svgjs="http://svgjs.com/svgjs" version="1.1" width="512" height="512" x="0" y="0" viewBox="0 0 511.918 511.918" style="enable-background:new 0 0 512 512" xml:space="preserve" class=""><g><g xmlns="http://www.w3.org/2000/svg"><path d="m235.432 63.534-76.104 20.997v-48.778c0-19.746 16.007-35.753 35.753-35.753h4.597c19.746 0 35.753 16.007 35.753 35.753v27.781z" fill="#719bff" data-original="#a4ceff" style="" class=""/><path d="m199.678 0h-2.299v84.531h38.052v-48.778c.001-19.746-16.007-35.753-35.753-35.753z" fill="#719bff" data-original="#59a7ff" style="" class=""/><g><path d="m345.172 376.696h-283.449c-8.793 0-15.922-7.129-15.922-15.922s7.129-15.922 15.922-15.922h283.448c8.793 0 15.922 7.129 15.922 15.922.001 8.793-7.128 15.922-15.921 15.922z" fill="#d6e2ff" data-original="#fff5f5" style="" class=""/></g><path d="m345.172 344.852h-147.711v31.843h147.711c8.793 0 15.922-7.128 15.922-15.922 0-8.792-7.129-15.921-15.922-15.921z" fill="#d6e2ff" data-original="#eee1dc" style="" class=""/><g><path d="m428.138 220.98c-8.793 0-15.922-7.128-15.922-15.922 0-36.804-30.054-74.707-66.997-74.707h-101.745c-8.793 0-15.922-7.128-15.922-15.922s7.129-15.922 15.922-15.922h101.746c54.501 0 98.84 52.188 98.84 106.551 0 8.794-7.129 15.922-15.922 15.922z" fill="#1b0428" data-original="#1b0428" style="" class=""/></g><path d="m492.319 511.918h-455.66c-20.034 0-36.274-16.24-36.274-36.274v-4.458c0-20.034 16.24-36.274 36.274-36.274h474.874v57.793c0 10.611-8.602 19.213-19.214 19.213z" fill="#719bff" data-original="#a4ceff" style="" class=""/><path d="m254.155 235.039-76.583 22.739c-5.388 0-6.34-7.293-6.34-12.681l-40.22-27.616v-129.766c0-13.39 10.855-24.245 24.245-24.245h84.408c13.39 0 24.245 10.855 24.245 24.245v129.767 7.802c0 5.388-4.367 9.755-9.755 9.755z" fill="#1a5eff" data-original="#194d80" style="" class=""/><path d="m433.379 196.908h-10.049c-43.163 0-78.154 34.991-78.154 78.154v159.849h166.358v-159.849c-.001-43.163-34.992-78.154-78.155-78.154z" fill="#2f6dff" data-original="#0e365c" style="" class=""/><ellipse cx="428.961" cy="268.489" fill="#3de72e" rx="15.663" ry="15.616" data-original="#fa184b" style="" class=""/><g><path d="m428.523 386.28c-8.793 0-15.922-7.129-15.922-15.922v-44.733c0-8.793 7.129-15.922 15.922-15.922s15.922 7.129 15.922 15.922v44.733c-.001 8.794-7.129 15.922-15.922 15.922z" fill="#f5e936" data-original="#ffba08" style="" class=""/></g><path d="m511.533 492.705v-57.792h-314.072v77.006h294.858c10.612-.001 19.214-8.603 19.214-19.214z" fill="#719bff" data-original="#59a7ff" style="" class=""/><path d="m239.665 63.47h-42.204v179.23h56.694c5.388 0-5.254-7.273-5.254-12.661l15.01-12.557v-129.767c-.001-13.39-10.856-24.245-24.246-24.245z" fill="#2f6dff" data-original="#0e365c" style="" class=""/><path d="m131.012 217.482v62.064c0 3.874 3.141 7.015 7.015 7.015h118.869c3.874 0 7.015-3.141 7.015-7.015v-62.064z" fill="#719bff" data-original="#a4ceff" style="" class=""/><path d="m197.461 286.561h59.434c3.874 0 7.015-3.141 7.015-7.015v-62.064h-66.449z" fill="#719bff" data-original="#59a7ff" style="" class=""/></g></g></svg>
